<?xml version="1.0" encoding="UTF-8"?>
<svg id="Layer_2" data-name="Layer 2" xmlns="http://www.w3.org/2000/svg" viewBox="0 0 397.15 606.78">
  <defs>
    <style>
      .cls-1 {
        fill: #fdfdfd;
      }
    </style>
  </defs>
  <g id="Layer_1-2" data-name="Layer 1">
    <g>
      <path class="cls-1" d="M396.89,345.29c-.33-.36-8.95-2.15-9.43-2.04-.82.17-1.29.43-1.33,1.51-10.06,38.89-34.57,74.08-73.37,88.04-32.59,11.73-71.45,10.85-102.15-5.79l-13.81-28.82c-8.65-19.92-12.33-40.99-11.9-62.49-.24-2.54-1.5-5.5-4.28-5.99-4.27-.75-7.39,6.54-8.49,9.82-6.42,19.13-5.85,37.67-2.39,56.56-36.53-41.37-46.78-99.13-42.92-153.19,4.25-53.14,25.76-109.18,73.9-136.8,33.12-19,75.94-21.55,110.94-6.23,39.34,17.22,58.86,52.71,65.2,93.85-.07,1.2.46,1.37,1.36,1.56.51.11,9.78-.82,10.16-1.16,0,0,.16-.32.48-.97l-6.27-112.95c-.06-.34-.22-.61-.5-.83-.77-.61-7.85.1-9.14.51-.66,2.34-1.32,4.68-1.99,7.02-1.6,4.89-3.46,7.54-8.77,6.49l-36.49-10.89c-87.75-25.32-186.83,3.59-233.83,85.04-46.58,80.72-31.86,190.63,41.44,250.34,18.3,14.91,38.5,25.24,60.5,32.85,10.22,18.99,19.29,40.18,22.37,62.3-12.17-26.27-30.48-49.48-54.82-65.41-20.68-12.67-40.09-26.84-56.68-44.68-41.78-44.93-61.58-108.59-56.64-169.87.08-1.95.64-3.56,2.12-4.84l10.37-6.8c4.36-3.45,10.13-9.45,9.29-15.5-.19-1.37-.8-2.4-2.01-3.03,5.15-13.02-3.4-22.07-13.48-9.5,1.74-7.61,3.84-15.13,6.32-22.57.36-1.01,1.1-1.8,2.11-2.16,11.91-.91,31.09-8.22,31.7-22.19.33-7.46-9.65-7.22-14.31-4.52.38-3.47.57-7.1-.54-10.51,2.32-.68,4.88-.9,7.68-.68,8.69-.68,22.62-3.45,22.03-14.39,8.06-7.11,2.35-15-7.11-11.84-.34,0-.53-6.53,2.17-5.26,9.14,1.12,22.29.48,28.42-7.36,1.58-2.02,1.93-4.56.49-6.73-3.56-5.36-12.42-3.5-17.54-1.58l9.88-10.16c7.08,3.4,25.63,3.27,28.1-5.73,2.01-7.31-8.56-9.01-13.7-7.86l10.92-9.05.54-.07c3.83,5.9,15.08,16.61,22.71,14.3,3.97-1.2,4.1-5.6,2.24-8.7,7.01,1.02,21.18-.12,22-9.2.64-7.08-7.15-10.94-13.15-11.79,5.16-4.99,12.98-16.12,7.6-23.01-5.34-6.85-17.7-2.36-23.6,1.78C169.06,8.05,166.62.05,159.31,0c-8.88-.05-12.21,13.05-12.68,20.04-2.94-2.41-7.27-2.72-9.34.88-4.21,7.33,5.68,20.25,10.33,25.38.07.08-1.08,1.3-1.33,1.53l-11.18,8.75,1.45-7c.42-5-2.69-10.98-8.2-8.19-8.97,4.54-9.65,18.56-7.28,27.13.14.81-.18,1.28-.64,1.87-.55.71-6.58,6.84-7.06,6.76l1.48-7.76c1.38-10.83-2.89-19.06-12.37-8.8-1.79-3.22-5.14-4.55-8.31-2.34-9.25,6.47-3.19,25.6,1.28,33.92l.04,1.03c-4.69,1.23-8.5,4.32-11.62,8.17-.7-5.82-5.99-13.94-12.04-8.44-8.4,7.64-3.02,24.56,1.68,32.87.38.93.43,1.82.16,2.67-2.7.47-5.27,1.66-7.12,3.79l-1.75-5.8c-4.29-10.63-12.34-7.66-14.75,1.77-3.84-2.23-7.85-1.99-10.28,2.12-6.19,10.43,6.33,28.6,14.79,34.43.95.93,1.09,1.93.69,3.18-2.84,7.93-5.37,16.14-7.43,24.39-3-14.45-15.16-18.88-16.68-.83-7.26-4.8-12.32-.6-11.82,7.56.75,12.3,10.06,22.71,19.96,28.85,1.84,1.69,2.3,2.85,2.49,5.32-3.86,50.04,8.76,102.43,35.75,144.72-14.33-14.09-26.51-30.33-35.93-48.11-5.94-12.46-12.07-24.97-18.4-37.51-4.63-8.43-9.72-17.41-16.83-23.93-2.81-2.58-7.03-.69-6.29,3.38,4.57,24.94,14.02,51.95,28.77,72.75,15.54,21.91,37.36,38.25,59.97,52.05l4.75,3.64,16.44,16.73c15.26,14.37,31.44,25.17,48.58,36.15,6.6,4.41,12.76,9.43,18.48,14.92-19.27-14.16-41.76-22.7-64.69-29.22l-25.92-8.75c-19.32-7.32-37.65-18.41-49.27-35.7-2.02-2.59-5.25-6.24-8.83-4.38-1.71.89-2.66,3.13-2.25,5.01,8.2,37.1,47.06,60.53,82.01,68.08l25.5,4.65c34.32,5.49,68.79,23.14,81.03,57.55,8.89,25,12.93,52.89,10.7,79.32l-.1,2.13h5.1c1.02-2.51,1.48-5.24,1.39-8.17.22-10.97-.1-21.69-.95-32.17,2.9-29.75,18.51-56.6,43.9-72.63l21.79-14.4c10.2-7.38,19.54-17.22,22.5-29.73,18.74-5.97,37.9-14.23,54.27-25.2.64,4.05,1.38,8.06,2.23,12.03.07.09.14.18.23.24.75.49,6.96.23,8.1-.08,4.49-30.2,8.93-60.42,13.32-90.68l-.27-.71ZM155.89,48.75l6.04,1.76c4.18,1.22,11.17,5.88,11.18,10.22-6.6.22-13.14-6.39-17.22-11.98ZM192.93,43.22c1.07,1.07,1.41,2.51,1.16,3.99-.58,3.38-7.21,4.73-11.61,4.87-6.62.21-12.96-1.27-18.61-5.19l10.34-.25c2.44-.06,4.76.33,7.24-.46-5.76-2.3-11.84-1.38-17.38-2.84,7.74-4.28,23.01-6.01,28.86-.12ZM166.24,24.95c.56-1.49,1.22-2.8,2.37-3.94,4.26-4.24,9.74-7.16,15.8-7.67,2.02-.17,4.31.33,5.35,1.99,1.08,1.73.6,3.63.21,5.64-2.6,6.64-7.69,12.6-14.54,15.06l-12.21,3.56,9.8-9.68c1.85-1.83,3.96-3.36,4.7-5.83l-12.4,9.18-4.37,3.6c2.1-3.92,3.74-7.79,5.29-11.92ZM153.05,11.48c1.49-3.79,3.87-7.45,7.53-6.79,3.76.68,4.66,7.59,4.01,12.33-.64,4.72-2.03,9.08-4.28,13.24-1.09,2.01-1.95,4.05-3.54,5.71.5-5.67,1.28-10.96,1.22-16.75-.01-.88.06-1.6-.66-1.93-1.72,5.72-1.27,12.09-3.78,18.14-2.54-8.31-3.35-15.62-.5-23.95ZM141.35,23.66c.02-.41.16-.87.36-1,.3-.19.89-.13,1.38.08,5.58,3.53,7.1,12.52,7.13,19.23-4.96-4.95-9.13-11.48-8.86-18.32ZM147.2,64.15c1.02.1,2.75,1.02,2.35,2.1-.78,2.08-2.88,3.03-4.73,3.72-4.9,1.83-10.2,1.49-15.12-.64,5.12-3.99,11.36-5.81,17.5-5.18ZM131.7,44.8c2.37,6.18-1.24,16.03-6.33,20.69-1.86-6.93-.5-17.76,6.33-20.69ZM69.21,160.78l7.36-10.65c2.48-3.59,11.01-7.1,13.05-5.02,1.52,1.56.11,5.34-2.07,7.79-5.64,6.33-11.93,9.06-20.58,10.19M104.32,120.08c-4.28,4.97-12.3,6.21-19.22,5.96,3.31-2.3,5.94-4.78,8.82-7.49,2.73-2.58,9.33-3.82,10.95-.92.45.8,0,1.67-.55,2.45ZM108.94,109.67c-.03,1.1-1.24,3.34-2.71,3.3-2.55-.07-4.82-1.25-7.42-.64,1.37-4,10.21-5.14,10.13-2.66ZM124.02,86.26c2.42-.24,5.28.23,5.73,1.52.15.42-.03,1.01-.39,1.46-4.32,5.4-15.1,6.66-22.3,5.46,3.44-4.46,11.42-7.89,16.96-8.45ZM101.43,90.36c-.83-.8-.66-4.58-.66-4.58-.25-8.02,1.81-15.97,5.97-22.74.88-1.43,2.02-2.57,3.6-2.99.87,1.62,1.01,3.38.91,5.2-.38,6.49-2.02,12.64-4.32,18.7-.88,2.3-1.65,5.78-3.7,6.15M94.78,65.53c.44-1.7,1.35-3.26,3.14-3.98,2.08,2.69,2.16,6.22,1.25,9.38l-2.36,12.6c-2.14-5.5-3.61-11.92-2.04-18ZM83.08,112.71c1.16-3.78,3.07-6.95,5.79-9.77,2.25-2.34,5.99-5.49,7.86-4.29,2.35,1.52.29,9.47-2.2,13.32-3.28,4.58-7.52,8.55-13.29,11.22-.65-3.73.82-7.14,1.84-10.47ZM72.22,105.94c-.34-5.13,2.28-10.95,4.33-10.08,1.68.71,2.15,2.62,2.77,4.24,1.96,8.27-1.1,13.3-2.47,21.22-2.85-4.84-4.28-10-4.63-15.37ZM68.32,137.32c1.69-2.27,4.8-4.99,6.62-4.01.46.25.97,1.02,1.01,1.82.33,6.46-1.84,12.48-5.71,17.58-2.46,3.24-8.32,10.26-8.53,6.75-.46-7.9,1.88-15.8,6.61-22.14ZM43.18,135.72c.08-1.52.57-3.39,1.92-4.11,1.26-.68,2.62.11,3.56.86,1.01.81,1.53,2.09,1.46,3.6-.14,4.04.15,7.97,1.12,11.89l2.5,9.68c-5.8-5.44-10.96-13.69-10.54-21.92ZM55.92,126.56c.39-.87,1.16-2.22,2.22-1.97,3.15.73,4.85,10.14,4.38,14.71-2.33,5.08-3.58,10.05-4.95,15.89-3.88-8.79-5.41-20.18-1.66-28.63ZM50.55,222.47c1.21-3.82,3.46-6.61,6.21-9.16,2.5-2.31,5.02-4.6,8.61-5.85.15,6.37-9.01,12.08-14.82,15.01ZM57.77,196.84c1.77-2.35,5.12-5.35,6.34-4.71,2.19,1.14.73,9.02-2.11,12.51-3.05,1.74-5.54,3.82-7.98,6.43l-4.44,4.73c1.42-6.99,3.99-13.4,8.19-18.96ZM39.66,222.07c-9.26-1.05-13.35-12.98-15.19-21.88-.34-1.66-.25-3.26.07-4.85.59-2.84,5.95.25,7.82,3.22l3.96,6.29c2.86,5.56,7.16,17.61,6.44,17.59M44.93,213.85c-2.64-5.23-4.69-10.61-8.05-15.57-1.26-5.02-.15-14.99,1.96-13.79,2.42,1.37,3.23,4.18,4.29,6.66,2.19,7.22,2.89,14.64,1.8,22.71ZM45.96,357.22c-15.05-15.51-25.43-33.91-32.36-54.32-3.14-9.24-6.18-18.26-7.76-28.09,9.95,10.56,16.33,26.39,22.82,39.2l12.24,24.14c6.76,11.9,14.75,22.71,24.03,32.92l7.8,9.08c-9.77-6.81-18.56-14.47-26.77-22.92ZM174.75,475.61c-12.44-6.18-25.51-10.2-39.23-12.6l-23.39-4.09c-11.38-2.42-22.22-5.82-32.67-10.93-18.98-9.29-34.97-22.47-44.24-41.68-1.71-3.55-3.08-6.9-3.89-10.93,1.98,1.33,3.02,3.09,4.35,4.86,5.16,6.9,11.09,12.84,18.18,17.82,6.25,4.39,12.5,8.35,19.46,11.59,11.86,5.52,23.98,9.68,36.53,13.37l29.21,9.83c10.88,4.22,21.01,9.39,30.66,15.92,6.2,4.2,12.07,8.39,17.41,13.83l-12.4-6.99ZM222.94,525.85c-1.86-14.36-4.21-28.1-8.73-41.72l-8.21-20.2-10-18.75-8.61-15.88c-4.56-8.4-7.94-17.16-10.55-26.43-2.73-9.69-4.21-19.38-4.6-29.47-.37-9.72.96-19.19,3.55-28.44.97-3.46,2.04-6.66,4.2-9.73.79,2.32.69,4.65.67,7.09-.07,8,.42,15.63,1.78,23.51,2.13,12.37,5.49,24.11,10.79,35.45l9.48,20.29,9.63,22.39,5.49,17.34,3.81,18.38c2.03,15.3,2.59,30.63,1.31,46.16ZM225.56,478.73c-1.13-7.84-2.95-15.23-5.12-23.01l29.82,2.68c18.44.51,36.41-1.47,54.62-5.38-5.7,4.66-11.73,8.09-18.02,11.56-8.08,4.47-15.82,8.93-23.25,14.42-8.39,6.18-15.45,13.34-21.35,22.12-7.92,11.51-12.76,23.97-16.14,37.39,2.05-20.27,2.29-39.86-.57-59.79ZM286.57,480.47l-17.35,11.42c-17.33,11.88-30.32,28.82-37.2,48.7l-2.9,8.38c1.73-18.51,8.38-35.52,19.61-50.14,5.38-7,11.76-12.7,18.94-17.75l13.39-8.45,18.55-10.84c4.03-2.36,7.55-5.08,11.02-8.16,1.1-.97,1.99-2.1,3.53-2.66-4.83,13.52-16.11,21.93-27.59,29.5Z"/>
      <path class="cls-1" d="M187.14,481.88c-2.41-1.97-5.28-3.2-7.95-4.76s-5.34-3.41-7.99-5.13-5.42-3.33-8.34-4.63-5.83-2.56-8.76-3.8c-7.12-3.01-14.34-5.92-21.84-7.86-5.11-1.32-10.33-2.13-15.48-3.26-7.68-1.68-15.35-3.7-22.72-6.46-4.29-1.6-8.53-3.35-12.7-5.24-3.69-1.68-7.44-3.43-10.8-5.71-.56-.38-1.11-.78-1.62-1.22-.36-.32-.9.21-.53.53,2.68,2.34,6.06,3.94,9.23,5.49,4.16,2.03,8.43,3.85,12.73,5.55,3.43,1.36,6.9,2.66,10.44,3.7,4.28,1.26,8.58,2.43,12.92,3.45,5.36,1.26,10.81,2.13,16.17,3.38,6.77,1.58,13.3,4.01,19.73,6.62,2.65,1.08,5.29,2.2,7.92,3.34,3,1.3,6.06,2.54,8.92,4.14s5.37,3.34,8.01,5.08,5.37,3.29,8.15,4.8c1.38.75,2.73,1.55,3.95,2.54.37.3.9-.22.53-.53h0Z"/>
      <path class="cls-1" d="M223.31,525.85c0-.24.14-.73.07-.95-.02-.06-.57.05-.6-.02.14.34.6.37.72,0,.05-.15-.04-.43-.07-.58-.09-.51-.18-1.03-.25-1.54-.11-.78-.19-1.56-.26-2.34-.13-1.63-.19-3.27-.26-4.91-.2-4.83-.68-9.62-1.44-14.39-1.9-11.9-4.57-23.78-8.25-35.27-2.35-7.31-5.19-14.47-8.67-21.32-2.61-5.15-5.64-10.06-8.34-15.17-2.54-4.8-4.85-9.73-6.71-14.84-1.24-3.4-2.23-6.88-3.25-10.36-.23-.77-.46-1.54-.7-2.3-.14-.46-.87-.26-.72.2,1.02,3.27,1.89,6.58,2.96,9.83,1.49,4.53,3.33,8.93,5.41,13.22,2.92,6.01,6.41,11.69,9.54,17.59,3.4,6.4,6.24,13.07,8.61,19.93,3.7,10.74,6.32,21.84,8.39,33,1.05,5.66,1.93,11.35,2.27,17.11.2,3.34.19,6.69.65,10.01.06.45.13.91.21,1.36.03.19.06.39.1.57.05.22-.04.23.04,0h.72c-.1-.25-.33-.49-.62-.32-.41.23-.31,1.13-.32,1.5-.02.48.73.48.75,0h0Z"/>
    </g>
  </g>
</svg>